<?xml version="1.0" standalone="no"?><!DOCTYPE svg PUBLIC "-//W3C//DTD SVG 1.1//EN" "http://www.w3.org/Graphics/SVG/1.1/DTD/svg11.dtd"><svg t="1504502144794" class="icon" style="" viewBox="0 0 1024 1024" version="1.1" xmlns="http://www.w3.org/2000/svg" p-id="2389" xmlns:xlink="http://www.w3.org/1999/xlink" width="16" height="16"><defs><style type="text/css"></style></defs><path d="M512 87.04C419.84 158.72 317.44 204.8 148.48 204.8v317.44c0 148.48 189.44 414.72 363.52 414.72s363.52-266.24 363.52-414.72V204.8c-174.08 0-271.36-46.08-363.52-117.76z m266.24 332.8L537.6 665.6c-10.24 10.24-25.6 15.36-35.84 15.36-10.24 0-25.6-5.12-35.84-10.24l-168.96-148.48c-20.48-20.48-25.6-51.2-5.12-71.68 20.48-20.48 51.2-25.6 71.68-5.12L496.64 563.2l209.92-209.92c20.48-20.48 51.2-20.48 71.68 0s20.48 46.08 0 66.56z" p-id="2390" fill="#333333"></path></svg>